<svg width="54" height="50" viewBox="0 0 54 50" fill="none" xmlns="http://www.w3.org/2000/svg">
<path d="M26.6636 0.00250025C31.6388 0.00250025 36.616 0.00250025 41.5913 0.00250025C44.1559 0.00250025 46.7224 -0.00140622 49.2869 0.000546804C51.1705 0.000546804 52.6365 1.15088 53.1252 2.99649C53.2117 3.32265 53.2464 3.65662 53.2464 3.99449C53.2464 11.0644 53.2425 18.1364 53.2425 25.2063C53.2425 29.628 53.2483 34.0516 53.2464 38.4732C53.2464 40.2036 52.1844 41.5551 50.5317 41.9457C50.2527 42.0121 49.9661 42.0317 49.6756 42.0317C44.102 42.0317 38.5284 42.0317 32.9548 42.0219C32.622 42.0219 32.5431 42.102 32.5989 42.4301C32.9163 44.2776 33.9841 45.508 35.6233 46.2853C36.4621 46.6838 37.3702 46.8224 38.2629 47.0255C39.0517 47.2052 39.5288 47.9025 39.4346 48.6895C39.3461 49.4356 38.6977 50 37.9089 50C32.4565 50 27.0061 50 21.5537 49.998C19.4643 49.998 17.373 50 15.2836 49.998C14.2851 49.9961 13.6521 49.2774 13.7503 48.2774C13.8176 47.5861 14.3678 47.0763 15.1778 46.965C16.2937 46.8127 17.3576 46.506 18.3273 45.9045C19.5855 45.1252 20.357 44.0023 20.6417 42.5355C20.7399 42.0336 20.7322 42.0317 20.2396 42.0317C14.6988 42.0317 9.15788 42.0141 3.61892 42.0414C1.46798 42.0512 -0.00766571 40.3501 2.99584e-05 38.3814C0.0327365 29.8057 0.0134988 21.228 0.0134988 12.6523C0.0134988 9.77936 0.0134988 6.9045 0.0134988 4.0316C0.0134988 1.72507 1.70655 0.00640565 3.96907 0.00640565C11.532 0.00640565 19.0968 0.00640565 26.6597 0.00640565L26.6636 0.00250025ZM26.6347 33.5907H26.9657C34.3747 33.5907 41.7837 33.5907 49.1946 33.5907C49.816 33.5907 50.0546 33.3485 50.0546 32.7157C50.0546 32.245 50.0507 31.7724 50.0507 31.3017C50.0507 22.2651 50.0527 13.2284 50.0546 4.19174C50.0546 3.46131 49.841 3.24257 49.1311 3.24257C43.1708 3.24257 37.2124 3.24257 31.2521 3.24257C26.7636 3.24257 22.2732 3.24648 17.7847 3.24648C13.1846 3.24648 8.58647 3.24648 3.98639 3.24648C3.45923 3.24648 3.2149 3.49451 3.2149 4.02964C3.21105 5.96119 3.21105 7.89078 3.21105 9.82232C3.21105 14.8729 3.21105 19.9253 3.21105 24.9759C3.21105 27.591 3.21297 30.2061 3.21105 32.8231C3.21105 33.1337 3.31302 33.368 3.59006 33.5125C3.77668 33.6102 3.97869 33.5868 4.17493 33.5868C11.6609 33.5868 19.1488 33.5868 26.6347 33.5868V33.5907ZM26.6444 36.2292C25.6439 36.2058 24.7685 37.0514 24.7397 38.069C24.7089 39.1646 25.5381 40.0376 26.6347 40.063C27.6333 40.0864 28.499 39.2173 28.524 38.1647C28.549 37.1139 27.7141 36.2526 26.6444 36.2273V36.2292Z" fill="#8BD25C"/>
<path d="M38.3264 9.73053C38.3264 10.7852 38.3399 11.8378 38.3168 12.8925C38.311 13.1932 38.4476 13.2694 38.6785 13.3417C40.6505 13.953 42.6186 14.576 44.5926 15.1814C44.8581 15.2635 44.91 15.3494 44.8119 15.6189C43.7076 18.6715 40.7043 20.5483 37.5183 20.1656C34.3612 19.7847 31.8774 17.279 31.4869 14.0819C31.0251 10.3028 33.6744 6.80294 37.3875 6.2893C38.0121 6.20336 38.3245 6.47679 38.3245 7.10957C38.3245 7.98452 38.3245 8.85948 38.3245 9.73444L38.3264 9.73053Z" fill="#8BD25C"/>
<path d="M21.4594 20.2398C21.4594 23.6068 21.4594 26.9758 21.4594 30.3428C21.4594 30.9404 21.3363 31.0849 20.7552 31.0947C19.9087 31.1103 19.0622 31.1103 18.2157 31.1045C17.7789 31.1006 17.5942 30.9013 17.5942 30.458C17.5942 27.5851 17.6 24.7122 17.6 21.8393C17.6 18.8082 17.5962 15.7791 17.5942 12.748C17.5942 11.8378 17.5923 10.9297 17.5942 10.0196C17.5942 9.50984 17.7674 9.34188 18.2753 9.33992C19.093 9.33992 19.9126 9.33992 20.7302 9.33992C21.3093 9.33992 21.4594 9.49031 21.4594 10.0704C21.4594 13.4608 21.4594 16.8513 21.4594 20.2398Z" fill="#8BD25C"/>
<path d="M23.5969 23.0131C23.5969 20.5171 23.5969 18.0192 23.5969 15.5232C23.5969 15.0623 23.7893 14.8592 24.2356 14.8533C25.1014 14.8436 25.9671 14.8416 26.8329 14.8436C27.2735 14.8436 27.4813 15.0564 27.4813 15.5076C27.4832 19.3316 27.4832 23.1537 27.4851 26.9777C27.4851 28.1105 27.487 29.2432 27.487 30.376C27.487 30.917 27.3331 31.0869 26.806 31.0947C25.9594 31.1064 25.1129 31.1103 24.2664 31.1103C23.795 31.1103 23.5949 30.8955 23.5949 30.4014C23.5949 27.9386 23.5949 25.4778 23.5949 23.015H23.5969V23.0131Z" fill="#8BD25C"/>
<path d="M11.5801 23.4193C11.5801 21.0971 11.5801 18.775 11.5801 16.4509C11.5801 15.8669 11.7359 15.7048 12.3016 15.7048C13.1404 15.7048 13.9811 15.7048 14.82 15.7087C15.2586 15.7107 15.4452 15.8962 15.4472 16.3435C15.4491 21.0561 15.4491 25.7688 15.4472 30.4814C15.4472 30.9033 15.2798 31.0849 14.87 31.0908C13.9792 31.1045 13.0904 31.1084 12.1996 31.1006C11.7532 31.0966 11.582 30.8994 11.582 30.4189C11.5801 28.0851 11.582 25.7512 11.582 23.4173L11.5801 23.4193Z" fill="#8BD25C"/>
<path d="M46.2779 12.5702C46.2856 13.0819 46.1991 13.6659 46.0548 14.2459C45.999 14.4686 45.9374 14.5233 45.7008 14.4471C43.8095 13.8417 41.9126 13.2557 40.0194 12.6581C39.3768 12.455 39.3788 12.4472 39.3788 11.7382C39.3788 9.77545 39.3865 7.81266 39.3711 5.84986C39.3691 5.51004 39.475 5.44754 39.7847 5.46512C43.4325 5.68386 46.2818 8.75792 46.2779 12.5702Z" fill="#8BD25C"/>
<path d="M5.57939 26.4172C5.57939 25.0813 5.57939 23.7474 5.57939 22.4115C5.57939 21.9291 5.741 21.7612 6.20851 21.7612C7.08197 21.7612 7.9535 21.7612 8.82696 21.7651C9.25215 21.767 9.43877 21.9506 9.43877 22.3764C9.44069 25.0794 9.44069 27.7824 9.43877 30.4873C9.43877 30.8896 9.27716 31.081 8.8866 31.0888C7.96312 31.1084 7.03964 31.1123 6.11809 31.1025C5.75254 31.0986 5.57939 30.8857 5.57939 30.4873C5.57747 29.1299 5.57939 27.7726 5.57939 26.4152V26.4172Z" fill="#8BD25C"/>
<path d="M38.615 24.1927C36.1293 24.1927 33.6417 24.1888 31.1559 24.1986C30.8885 24.1986 30.7827 24.1478 30.8058 23.8568C30.8327 23.5345 30.8289 23.2045 30.8058 22.8822C30.7866 22.6244 30.8751 22.5697 31.1175 22.5697C33.228 22.5795 35.3385 22.5756 37.4491 22.5756C40.3215 22.5756 43.1958 22.5795 46.0682 22.5697C46.3337 22.5697 46.4453 22.6205 46.4203 22.9115C46.3953 23.2338 46.3991 23.5619 46.4203 23.8861C46.4376 24.1458 46.3433 24.1986 46.1029 24.1986C44.2694 24.1888 42.4339 24.1927 40.6005 24.1927C39.9367 24.1927 39.2749 24.1927 38.6111 24.1927H38.615Z" fill="#8BD25C"/>
<path d="M38.6092 25.8137C41.0968 25.8137 43.5844 25.8176 46.074 25.8079C46.3395 25.8079 46.4472 25.8625 46.4222 26.1516C46.3972 26.4524 46.4011 26.759 46.4261 27.0597C46.4492 27.3429 46.3799 27.4386 46.0721 27.4367C43.9827 27.4211 41.8914 27.4289 39.802 27.4289C36.9373 27.4289 34.0745 27.4211 31.2098 27.4367C30.8577 27.4386 30.775 27.3332 30.8077 27.009C30.8346 26.7414 30.8308 26.4699 30.8077 26.2024C30.7827 25.9075 30.8597 25.8059 31.1771 25.8079C33.6532 25.8235 36.1312 25.8157 38.6073 25.8157L38.6092 25.8137Z" fill="#8BD25C"/>
<path d="M36.3678 29.1007C38.1148 29.1007 39.8597 29.1065 41.6067 29.0948C41.8568 29.0948 41.9318 29.1553 41.9164 29.4092C41.8933 29.7452 41.8972 30.083 41.9164 30.4189C41.9299 30.6592 41.8414 30.7217 41.6144 30.7197C40.4985 30.7099 39.3807 30.7158 38.2648 30.7158C35.9099 30.7158 33.5551 30.708 31.2002 30.7236C30.8693 30.7256 30.7808 30.6299 30.8096 30.3115C30.8366 30.0225 30.8308 29.7276 30.8096 29.4366C30.7904 29.1788 30.8616 29.0948 31.1329 29.0968C32.8778 29.1104 34.6248 29.1026 36.3698 29.1026L36.3678 29.1007Z" fill="#8BD25C"/>
</svg>
