<svg width="42" height="50" viewBox="0 0 42 50" fill="none" xmlns="http://www.w3.org/2000/svg">
<path d="M22.6722 0C23.4875 0.135878 24.3027 0.229948 25.1075 0.42854C29.0166 1.37969 31.2533 3.88821 31.8491 7.94366C32.2045 10.3477 32.3403 12.7621 32.1417 15.187C31.6296 21.3747 27.4592 25.566 22.9335 27.0084C20.979 27.6356 19.1603 27.2175 17.4253 26.3395C13.1295 24.155 10.621 20.6431 9.98341 15.8664C9.58623 12.8771 9.74301 9.88777 10.391 6.9507C11.1958 3.33425 13.4848 1.14974 17.1117 0.386731C17.8538 0.229948 18.6063 0.125426 19.3484 0C20.4564 0 21.5643 0 22.6722 0ZM11.4676 11.6751C11.4362 13.1907 11.3735 14.5913 11.6348 15.9918C12.471 20.5908 15.0317 23.7787 19.453 25.3988C20.1637 25.6601 20.8953 25.7751 21.6583 25.6288C23.8533 25.1898 25.6719 24.0505 27.2084 22.4722C29.3615 20.2668 30.3753 17.5597 30.5635 14.5181C30.6157 13.6087 30.5635 12.6994 30.5635 11.7796C30.2395 12.1559 29.9886 12.5322 29.6019 12.8039C29.1943 13.0861 28.7971 13.1175 28.3999 12.783C28.0863 12.5217 27.7728 12.2709 27.4697 11.9991C24.3236 9.11431 19.6097 9.00978 16.4846 10.6508C15.4812 11.1838 14.645 11.9259 13.788 12.6576C13.1713 13.1802 12.7218 13.1488 12.1365 12.574C11.8961 12.3336 11.7394 12.0305 11.4676 11.6855V11.6751ZM24.6058 5.15293C24.6058 5.0066 24.6058 4.99614 24.355 4.92298C22.1182 4.25404 19.8815 4.25404 17.6448 4.92298C17.4357 4.98569 17.3521 5.05886 17.4566 5.28881C17.6761 5.78006 17.8747 6.27131 18.0524 6.78347C18.136 7.03432 18.2614 7.05523 18.4914 6.99251C20.1742 6.51171 21.8465 6.51171 23.5293 6.99251C23.6547 7.02387 23.8115 7.10749 23.8742 6.9507C24.125 6.35493 24.3654 5.7487 24.5954 5.15293H24.6058Z" fill="#8BD25C"/>
<path d="M21.0521 32.4854C21.4075 31.5656 21.8151 30.6772 22.0764 29.7574C22.3691 28.7122 22.9126 28.1268 24.0205 27.8969C25.1493 27.6669 26.1318 26.998 27.0621 26.2977C27.3756 26.0573 27.6996 25.9737 28.055 26.1723C31.1697 27.8446 34.3158 29.4856 37.3364 31.3357C38.7997 32.2345 39.5731 33.656 40.2003 35.1716C40.9946 37.1053 41.4336 39.133 41.789 41.1921C41.8412 41.5161 41.7576 41.7983 41.6008 42.0805C40.9737 43.1675 40.0539 43.9619 39.0401 44.6517C38.3189 45.143 37.535 45.5506 36.7406 45.9165C36.4793 46.0419 36.2808 46.0732 36.0613 45.8224C35.894 45.6342 35.6432 45.5193 35.4132 45.352C35.685 45.1534 36.009 44.9967 36.2389 44.7354C36.8765 43.9932 36.9601 43.0003 36.4584 42.1014C34.1799 38.0564 28.3999 37.6488 25.5883 41.3384C25.3793 41.6206 25.1598 41.7147 24.8253 41.7147C22.2855 41.7042 19.7456 41.7042 17.2162 41.7147C16.8818 41.7147 16.6623 41.6311 16.4428 41.3489C13.673 37.7533 8.16475 38.0146 5.71898 41.8401C4.92462 43.0735 5.03959 44.5159 6.61785 45.3729C6.35655 45.5715 6.05344 45.697 5.8444 45.9583C5.71898 46.1255 5.5831 46.0314 5.44722 45.9792C3.84806 45.2684 2.35342 44.4009 1.15143 43.0839C0.9842 42.9062 0.837872 42.7076 0.691543 42.5195C0.31527 42.0178 0.158489 41.4952 0.294366 40.8367C0.796064 38.3595 1.39183 35.9242 2.58336 33.6769C3.13732 32.6422 3.88987 31.7955 4.92462 31.1893C7.88255 29.4543 10.9032 27.8342 13.9134 26.2036C14.2583 26.0155 14.5928 26.0364 14.9168 26.2768C16.1083 27.1861 17.4148 27.8551 18.8781 28.1895C19.2439 28.2732 19.453 28.5031 19.5888 28.8585C19.986 29.9351 20.4041 31.0116 20.8117 32.0882C20.864 32.2136 20.8744 32.3704 21.0521 32.5063V32.4854Z" fill="#8BD25C"/>
<path d="M9.42945 47.1603C10.0148 47.1603 10.6001 47.1394 11.1854 47.1603C11.5199 47.1812 11.6453 47.0348 11.6871 46.7317C11.823 45.791 11.8125 44.8503 11.6662 43.9201C11.6244 43.5961 11.4676 43.5438 11.1749 43.5438C10.0357 43.5543 8.8964 43.5438 7.75712 43.5438C7.55854 43.5438 7.30769 43.6274 7.19271 43.3766C7.08819 43.1466 7.27633 42.9794 7.3913 42.8122C9.33538 39.8646 13.673 40.0737 15.3349 43.1989C15.5125 43.5334 15.6902 43.6483 16.0665 43.6483C19.3484 43.6274 22.6408 43.6379 25.9228 43.6483C26.2886 43.6483 26.4767 43.5543 26.6649 43.2093C27.501 41.6624 28.818 40.7949 30.5844 40.7322C32.3299 40.6695 33.6886 41.422 34.6607 42.8749C34.7548 43.0212 34.9115 43.1571 34.8175 43.3557C34.7129 43.5752 34.4935 43.5438 34.3053 43.5438C33.1451 43.5438 31.9954 43.5543 30.8352 43.5438C30.5112 43.5438 30.3753 43.6483 30.3335 43.9619C30.2081 44.9026 30.1977 45.8433 30.3335 46.7735C30.3753 47.0766 30.5112 47.1603 30.8143 47.1603C31.9641 47.1394 33.1242 47.1603 34.2844 47.1603C34.4725 47.1603 34.692 47.0975 34.8175 47.317C34.9429 47.5365 34.7652 47.6933 34.6711 47.8501C32.8107 50.829 28.3163 50.6722 26.6858 47.547C26.4872 47.1707 26.2781 47.0557 25.8705 47.0662C22.6199 47.0871 19.3589 47.0871 16.1083 47.0662C15.7216 47.0662 15.523 47.1603 15.3349 47.5261C13.7252 50.6408 9.31448 50.8603 7.38085 47.9233C7.27633 47.756 7.07774 47.5993 7.19271 47.3589C7.31814 47.1185 7.55854 47.1916 7.75712 47.1916C8.31108 47.1916 8.86504 47.1916 9.419 47.1916C9.419 47.1916 9.419 47.1812 9.419 47.1707L9.42945 47.1603Z" fill="#8BD25C"/>
</svg>
