<svg width="74" height="49" viewBox="0 0 74 49" fill="none" xmlns="http://www.w3.org/2000/svg">
<path d="M21.788 43.9513C21.3342 43.9513 20.785 44.3932 20.6592 44.8611C20.6216 45.0026 20.639 45.0965 20.6607 45.1239C20.6737 45.1412 20.7344 45.1687 20.8413 45.1687C21.2937 45.1687 21.84 44.7282 21.9658 44.2617C22.0048 44.1173 21.9875 44.0235 21.9658 43.996C21.9542 43.9772 21.895 43.9513 21.788 43.9513Z" fill="#8BD25C"/>
<path d="M53.4836 24.6545L55.2685 18.0114C55.4044 17.506 55.8626 17.1551 56.3858 17.1551H67.7705L67.584 15.8308H54.212L51.8446 24.6531H53.4836V24.6545Z" fill="#8BD25C"/>
<path d="M22.8171 40.1199C20.2574 40.1199 17.5142 42.2905 16.8248 44.8611C16.5083 46.0352 16.6601 47.1053 17.2526 47.8779C17.8076 48.6014 18.7167 49 19.8123 49C22.369 49 25.1122 46.8294 25.8045 44.2617C26.121 43.0876 25.9678 42.0146 25.3753 41.242C24.8217 40.5185 23.9126 40.1199 22.8171 40.1199ZM24.2002 44.8611C23.8042 46.3298 22.33 47.4793 20.8428 47.4793C20.0262 47.4793 19.292 47.1342 18.8295 46.5334C18.3554 45.9167 18.208 45.0907 18.4262 44.2661C18.8222 42.7916 20.2979 41.6406 21.7894 41.6406C22.606 41.6406 23.3403 41.9858 23.8028 42.5894C24.2768 43.2061 24.4214 44.035 24.2002 44.8611Z" fill="#8BD25C"/>
<path d="M25.5501 27.1038C33.0383 27.1038 39.1317 21.0239 39.1317 13.5519C39.1317 6.07987 33.0397 0 25.5501 0C18.062 0 11.9686 6.07987 11.9686 13.5519C11.9686 21.0239 18.0606 27.1038 25.5501 27.1038ZM24.3939 6.74851C24.3939 6.1102 24.9113 5.59319 25.5501 5.59319C26.189 5.59319 26.7064 6.1102 26.7064 6.74851V13.0378L29.7849 15.8048C30.259 16.2308 30.298 16.9615 29.8716 17.4367C29.6432 17.6908 29.3282 17.8194 29.0117 17.8194C28.7356 17.8194 28.4595 17.7212 28.2384 17.5233L24.7769 14.4112C24.5326 14.1917 24.3939 13.8797 24.3939 13.5519V6.74851Z" fill="#8BD25C"/>
<path d="M25.5501 29.4144C21.4513 29.4144 17.7108 27.8576 14.8896 25.3073L12.7173 33.3974H47.104L53.6657 8.94362H40.7591C41.2043 10.4037 41.4442 11.9503 41.4442 13.5533C41.4442 22.2991 34.3145 29.4144 25.5501 29.4144Z" fill="#8BD25C"/>
<path d="M60.6595 40.1199C58.0999 40.1199 55.3553 42.2905 54.6673 44.8611C54.3508 46.0352 54.5025 47.1053 55.0951 47.8779C55.6501 48.6014 56.5592 49 57.6547 49C60.2115 49 62.9547 46.8294 63.647 44.2617C63.9621 43.0862 63.8089 42.0132 63.2148 41.2391C62.6613 40.5171 61.7522 40.1199 60.6595 40.1199ZM62.0427 44.8611C61.6467 46.3298 60.1725 47.4793 58.6852 47.4793C57.8687 47.4793 57.1344 47.1342 56.6719 46.5334C56.1979 45.9167 56.0505 45.0907 56.2701 44.2661C56.6662 42.793 58.1418 41.6406 59.6334 41.6406C60.45 41.6406 61.1842 41.9858 61.6467 42.5894C62.1193 43.2061 62.2638 44.035 62.0427 44.8611Z" fill="#8BD25C"/>
<path d="M55.8785 24.6545H68.8299L68.0956 19.4671H57.2732L55.8785 24.6545Z" fill="#8BD25C"/>
<path d="M73.2612 28.1277C72.6614 27.3464 71.6468 26.9652 70.161 26.9652H70.1595C70.1581 26.9652 70.1581 26.9652 70.1567 26.9652H51.2231L49.1072 34.8502C48.9713 35.3557 48.5132 35.7066 47.99 35.7066H12.0972L10.0304 43.4054H14.878C16.1441 40.2066 19.4668 37.8078 22.8185 37.8078C24.6497 37.8078 26.2106 38.527 27.2137 39.834C27.9681 40.8174 28.3295 42.071 28.2688 43.4039H52.7205C53.9866 40.2051 57.3093 37.8064 60.661 37.8064C62.4907 37.8064 64.0488 38.5256 65.0518 39.8296C65.8077 40.8146 66.1705 42.0681 66.1098 43.4039H71.1019L73.3884 34.8849C74.2454 31.6904 74.2006 29.3523 73.2612 28.1277Z" fill="#8BD25C"/>
<path d="M59.6305 43.9513C59.1767 43.9513 58.6274 44.3932 58.5017 44.8611C58.4641 45.004 58.4815 45.0965 58.5031 45.1239C58.5161 45.1412 58.5768 45.1687 58.6838 45.1687C59.1362 45.1687 59.6825 44.7282 59.8083 44.2617C59.8473 44.1173 59.8299 44.0235 59.8083 43.996C59.7952 43.9772 59.7374 43.9513 59.6305 43.9513Z" fill="#8BD25C"/>
<path d="M9.12567 32.788H7.64278C7.00396 32.788 6.48654 33.305 6.48654 33.9433C6.48654 34.5816 7.00396 35.0986 7.64278 35.0986H9.12567C9.7645 35.0986 10.2819 34.5816 10.2819 33.9433C10.2819 33.305 9.7645 32.788 9.12567 32.788Z" fill="#8BD25C"/>
<path d="M10.227 31.0016H10.2313C10.8673 31.0016 11.3847 30.4874 11.3876 29.8506C11.3905 29.2123 10.8745 28.6924 10.2357 28.6909L2.27058 28.6577C2.26913 28.6577 2.26769 28.6577 2.26624 28.6577C1.63031 28.6577 1.11289 29.1718 1.11 29.8087C1.10711 30.447 1.62308 30.9669 2.26191 30.9683L10.227 31.0016Z" fill="#8BD25C"/>
<path d="M9.14157 26.8352H11.2185C11.8573 26.8352 12.3747 26.3182 12.3747 25.6799C12.3747 25.0416 11.8573 24.5246 11.2185 24.5246H9.14157C8.50274 24.5246 7.98532 25.0416 7.98532 25.6799C7.98532 26.3182 8.50274 26.8352 9.14157 26.8352Z" fill="#8BD25C"/>
<path d="M5.63814 26.8352C6.27697 26.8352 6.79439 26.3182 6.79439 25.6799C6.79439 25.0416 6.27697 24.5246 5.63814 24.5246H1.15625C0.51742 24.5246 0 25.0416 0 25.6799C0 26.3182 0.51742 26.8352 1.15625 26.8352H5.63814Z" fill="#8BD25C"/>
<path d="M4.25354 32.788H3.38057C2.74175 32.788 2.22433 33.305 2.22433 33.9433C2.22433 34.5816 2.74175 35.0986 3.38057 35.0986H4.25354C4.89236 35.0986 5.40978 34.5816 5.40978 33.9433C5.40978 33.305 4.89236 32.788 4.25354 32.788Z" fill="#8BD25C"/>
</svg>
