<svg width="190" height="140" viewBox="0 0 190 140" fill="none" xmlns="http://www.w3.org/2000/svg">
<path d="M75.2096 95.9297C81.5107 94.7918 86.2422 90.1175 86.2422 84.5358C86.2422 77.3408 82.2975 75.2558 75.2096 73.5921V95.9297Z" fill="#8BD25C" fill-opacity="0.45"/>
<path d="M105.008 87.4923H124.836V50.1489C116.453 29.2878 95.3859 15.3083 72.2408 15.3083C41.1209 15.3083 15.8049 39.8426 15.8049 70.0018C15.8049 100.157 41.1209 124.695 72.2408 124.695C88.6283 124.695 103.969 117.911 114.716 106.002L102.741 92.235C101.995 91.3779 101.828 90.1788 102.318 89.1597C102.8 88.1441 103.851 87.4923 105.008 87.4923ZM92.1871 84.5358C92.1871 93.2613 84.8061 100.51 75.2096 101.767V108.022C75.2096 109.614 73.8811 110.907 72.2371 110.907C70.5969 110.907 69.2646 109.618 69.2646 108.022V101.767C59.6682 100.51 52.2871 93.2613 52.2871 84.5358C52.2871 82.9442 53.6156 81.6514 55.2596 81.6514C56.9035 81.6514 58.232 82.9406 58.232 84.5358C58.232 90.1175 62.9672 94.7918 69.2646 95.9297V72.3281C61.1711 70.578 52.2871 67.6719 52.2871 55.4606C52.2871 46.7351 59.6682 39.4861 69.2646 38.2293V31.9742C69.2646 30.3825 70.5932 29.0897 72.2371 29.0897C73.8773 29.0897 75.2096 30.3789 75.2096 31.9742V38.2293C84.8061 39.4861 92.1871 46.7351 92.1871 55.4606C92.1871 57.0522 90.8586 58.345 89.2146 58.345C87.5707 58.345 86.2422 57.0558 86.2422 55.4606C86.2422 49.8789 81.507 45.2046 75.2096 44.0667V67.6683C83.3031 69.4148 92.1871 72.3245 92.1871 84.5358Z" fill="#8BD25C" fill-opacity="0.45"/>
<path d="M72.2408 130.461C37.8441 130.461 9.86367 103.341 9.86367 70.0018C9.86367 36.6628 37.8441 9.54652 72.2408 9.54652C85.1549 9.54652 97.542 13.3385 108.074 20.5119C114.82 25.1105 120.483 30.8722 124.84 37.4911V22.0423C111.217 8.02325 92.1166 3.09661e-07 72.2445 3.09661e-07C32.4076 -0.00360079 0 31.4016 0 70.0054C0 108.602 32.4076 140 72.2408 140C92.265 140 111.339 131.941 124.984 117.806L118.59 110.46C106.749 123.215 90.0496 130.461 72.2408 130.461Z" fill="#8BD25C" fill-opacity="0.45"/>
<path d="M58.232 55.4606C58.232 62.6556 62.1767 64.7406 69.2646 66.4043V44.0667C62.9672 45.2046 58.232 49.8789 58.232 55.4606Z" fill="#8BD25C" fill-opacity="0.45"/>
<path d="M173.587 93.2613C171.946 93.2613 170.614 91.9721 170.614 90.3768V23.7817H130.777V90.3768C130.777 91.9685 129.449 93.2613 127.805 93.2613H111.402L150.694 138.419L190 93.2613H173.587Z" fill="#8BD25C" fill-opacity="0.45"/>
</svg>
