<svg width="117" height="140" viewBox="0 0 117 140" fill="none" xmlns="http://www.w3.org/2000/svg">
<path d="M62.7931 0C65.0758 0.38046 67.3585 0.643855 69.612 1.19991C80.5574 3.86313 86.8202 10.887 88.4884 22.2423C89.4834 28.9735 89.8639 35.7339 89.3078 42.5237C87.8738 59.8492 76.1968 71.5849 63.5247 75.6236C58.052 77.3796 52.9598 76.209 48.1017 73.7506C36.0735 67.634 29.0497 57.8006 27.2645 44.426C26.1524 36.0559 26.5914 27.6858 28.4059 19.462C30.6593 9.33589 37.0685 3.21927 47.2237 1.08285C49.3016 0.643855 51.4087 0.351193 53.4866 0C56.5887 0 59.6909 0 62.7931 0ZM31.4202 32.6903C31.3324 36.9338 31.1568 40.8555 31.8885 44.7772C34.2297 57.6543 41.3998 66.5804 53.7792 71.1167C55.7693 71.8483 57.8179 72.1702 59.9543 71.7605C66.1001 70.5313 71.1923 67.3413 75.4944 62.9222C81.5231 56.747 84.3619 49.1671 84.8887 40.6506C85.035 38.1045 84.8887 35.5583 84.8887 32.9829C83.9815 34.0365 83.2791 35.0901 82.1963 35.851C81.0549 36.6412 79.9428 36.729 78.8307 35.7925C77.9527 35.0608 77.0747 34.3584 76.226 33.5975C67.4171 25.5201 54.2182 25.2274 45.4678 29.8222C42.6583 31.3148 40.317 33.3926 37.9172 35.4413C36.1905 36.9046 34.9321 36.8168 33.2932 35.2071C32.6201 34.534 32.1811 33.6853 31.4202 32.7195V32.6903ZM68.2072 14.4282C68.2072 14.0185 68.2072 13.9892 67.5049 13.7843C61.242 11.9113 54.9791 11.9113 48.7163 13.7843C48.131 13.9599 47.8968 14.1648 48.1895 14.8087C48.8041 16.1842 49.3601 17.5597 49.8576 18.9937C50.0918 19.6961 50.4429 19.7546 51.0868 19.579C55.7986 18.2328 60.4811 18.2328 65.1929 19.579C65.5441 19.6668 65.983 19.901 66.1586 19.462C66.861 17.7938 67.5341 16.0964 68.178 14.4282H68.2072Z" fill="#8BD25C" fill-opacity="0.45"/>
<path d="M58.2569 90.9591C59.2519 88.3837 60.3933 85.8961 61.1249 83.3206C61.9444 80.394 63.4662 78.7551 66.5684 78.1113C69.7291 77.4674 72.48 75.5944 75.0847 73.6336C75.9627 72.9604 76.8699 72.7263 77.8649 73.2824C86.5861 77.9649 95.3951 82.5597 103.853 87.7398C107.95 90.2567 110.116 94.2369 111.872 98.4805C114.096 103.895 115.325 109.572 116.32 115.338C116.466 116.245 116.232 117.035 115.793 117.825C114.037 120.869 111.462 123.093 108.623 125.025C106.604 126.4 104.409 127.542 102.185 128.566C101.453 128.917 100.897 129.005 100.282 128.303C99.8142 127.776 99.1118 127.454 98.468 126.986C99.2289 126.43 100.136 125.991 100.78 125.259C102.565 123.181 102.799 120.401 101.395 117.884C95.0146 106.558 78.8307 105.417 70.9582 115.748C70.3729 116.538 69.7583 116.801 68.8218 116.801C61.7102 116.772 54.5987 116.772 47.5164 116.801C46.5799 116.801 45.9653 116.567 45.3507 115.777C37.5953 105.709 22.1723 106.441 15.3241 117.152C13.0999 120.606 13.4218 124.644 17.8409 127.044C17.1093 127.6 16.2606 127.951 15.6753 128.683C15.3241 129.151 14.9436 128.888 14.5632 128.742C10.0855 126.752 5.90051 124.322 2.53495 120.635C2.0667 120.137 1.65698 119.581 1.24726 119.055C0.193693 117.65 -0.245293 116.187 0.135161 114.343C1.53992 107.407 3.20806 100.588 6.54435 94.2954C8.09544 91.3981 10.2026 89.0275 13.0999 87.3301C21.3821 82.4719 29.8399 77.9357 38.2684 73.3702C39.2342 72.8434 40.1707 72.9019 41.0779 73.575C44.4142 76.1212 48.0724 77.9942 52.1696 78.9307C53.1939 79.1649 53.7792 79.8087 54.1597 80.8038C55.2718 83.8182 56.4424 86.8326 57.5838 89.847C57.7301 90.1982 57.7594 90.6372 58.2569 91.0176V90.9591Z" fill="#8BD25C" fill-opacity="0.45"/>
<path d="M25.7134 132.049C27.3523 132.049 28.9912 131.99 30.63 132.049C31.5665 132.107 31.9177 131.698 32.0348 130.849C32.4153 128.215 32.386 125.581 31.9763 122.976C31.8592 122.069 31.4202 121.923 30.6008 121.923C27.4108 121.952 24.2208 121.923 21.0309 121.923C20.4748 121.923 19.7725 122.157 19.4505 121.454C19.1579 120.811 19.6847 120.342 20.0066 119.874C25.45 111.621 37.5953 112.206 42.2485 120.957C42.7461 121.893 43.2436 122.215 44.2971 122.215C53.4866 122.157 62.7053 122.186 71.8947 122.215C72.919 122.215 73.4458 121.952 73.9726 120.986C76.3138 116.655 80.0013 114.226 84.9472 114.05C89.8346 113.874 93.6392 115.982 96.3609 120.05C96.6243 120.459 97.0632 120.84 96.7998 121.396C96.5072 122.01 95.8926 121.923 95.3658 121.923C92.1173 121.923 88.8981 121.952 85.6496 121.923C84.7424 121.923 84.3619 122.215 84.2449 123.093C83.8937 125.727 83.8644 128.361 84.2449 130.966C84.3619 131.815 84.7424 132.049 85.5911 132.049C88.8103 131.99 92.0588 132.049 95.3073 132.049C95.8341 132.049 96.4487 131.873 96.7998 132.488C97.151 133.102 96.6535 133.541 96.3901 133.98C91.1808 142.321 78.5966 141.882 74.0311 133.132C73.4751 132.078 72.8897 131.756 71.7484 131.785C62.6467 131.844 53.5158 131.844 44.4142 131.785C43.3314 131.785 42.7753 132.049 42.2485 133.073C37.7416 141.794 25.3915 142.409 19.9773 134.185C19.6847 133.717 19.1286 133.278 19.4505 132.605C19.8017 131.932 20.4748 132.137 21.0309 132.137C22.582 132.137 24.1331 132.137 25.6841 132.137C25.6841 132.137 25.6841 132.107 25.6841 132.078L25.7134 132.049Z" fill="#8BD25C" fill-opacity="0.45"/>
</svg>
