<svg width="117" height="12" viewBox="0 0 117 12" fill="none" xmlns="http://www.w3.org/2000/svg">
<path d="M1 5.25C0.585786 5.25 0.25 5.58579 0.25 6C0.25 6.41421 0.585786 6.75 1 6.75L1 5.25ZM116.53 6.53032C116.823 6.23743 116.823 5.76255 116.53 5.46966L111.757 0.696689C111.464 0.403796 110.99 0.403796 110.697 0.69669C110.404 0.989583 110.404 1.46446 110.697 1.75735L114.939 5.99999L110.697 10.2426C110.404 10.5355 110.404 11.0104 110.697 11.3033C110.99 11.5962 111.464 11.5962 111.757 11.3033L116.53 6.53032ZM1 6.75L116 6.74999L116 5.24999L1 5.25L1 6.75Z" fill="#8BD25C"/>
</svg>
