<svg width="70" height="80" viewBox="0 0 70 80" fill="none" xmlns="http://www.w3.org/2000/svg">
<path d="M33.8704 1.30268C34.5694 0.899106 35.4306 0.899107 36.1296 1.30268L67.8704 19.6282C68.5694 20.0318 69 20.7776 69 21.5848V58.2359C69 59.043 68.5694 59.7888 67.8704 60.1924L36.1296 78.518C35.4306 78.9215 34.5694 78.9215 33.8704 78.518L2.12962 60.1924C1.43061 59.7888 1 59.043 1 58.2359V21.5848C1 20.7776 1.43061 20.0318 2.12962 19.6282L33.8704 1.30268Z" stroke="#8BD25C" stroke-width="2"/>
<path d="M33.3701 3.69544C34.3785 3.11324 35.6209 3.11324 36.6293 3.69544L65.5475 20.3914C66.5559 20.9736 67.1771 22.0495 67.1771 23.2139V56.6058C67.1771 57.7702 66.5559 58.8462 65.5475 59.4284L36.6293 76.1243C35.6209 76.7065 34.3785 76.7065 33.3701 76.1243L4.45188 59.4284C3.44347 58.8462 2.82227 57.7702 2.82227 56.6058V23.2139C2.82227 22.0495 3.44347 20.9736 4.45188 20.3914L33.3701 3.69544Z" fill="#8BD25C"/>
<path d="M48.8388 26.2998C49.7831 26.2998 50.6627 26.3028 51.5422 26.2998C53.1905 26.292 54.8388 26.2813 56.4871 26.2695C57.0421 26.2656 57.3696 25.9909 57.3932 25.5235C57.4167 25.0424 57.0892 24.6972 56.544 24.6532C56.3008 24.6337 56.0537 24.6474 55.8086 24.6474C52.8679 24.6425 49.9263 24.6396 46.9856 24.6308C46.4247 24.6288 45.9629 24.6982 45.6265 25.2751C45.3981 25.6662 44.8558 25.5127 44.4508 25.4746C44.1116 25.4423 44.0616 25.1382 44.0498 24.842C43.987 23.2951 44.2018 23.0634 45.7246 23.0624C49.6939 23.0614 53.6641 23.0624 57.6334 23.0614C58.7091 23.0614 58.9905 23.3313 58.9915 24.4186C58.9954 28.7198 58.9934 33.0211 58.9934 37.3224C58.9934 43.1881 58.9934 49.0538 58.9934 54.9185C58.9934 55.0809 58.9934 55.2451 58.9768 55.4065C58.9091 56.0518 58.7071 56.2591 58.0649 56.3363C57.8874 56.3578 57.707 56.3578 57.5275 56.3578C53.5406 56.3588 49.5536 56.3598 45.5677 56.3588C45.3882 56.3588 45.2078 56.3569 45.0294 56.3393C44.3871 56.2757 44.0871 55.9912 44.0576 55.3458C44.0302 54.7611 44.0616 54.1735 44.0567 53.5868C44.0537 53.2456 44.2861 53.2465 44.5234 53.2397C45.3873 53.2143 46.2521 53.2817 47.116 53.2016C48.3309 53.0891 49.2654 52.1563 49.3536 50.9439C49.3771 50.6192 49.3918 50.2936 49.3918 49.968C49.3938 45.0312 49.3948 40.0944 49.3918 35.1576C49.3918 34.4907 49.3566 33.8229 49.3624 33.156C49.3683 32.5342 49.4605 32.4579 50.0773 32.4579C52.1845 32.4579 54.2917 32.4579 56.3989 32.4579C56.7735 32.4579 57.1127 32.3914 57.303 32.0111C57.5373 31.5437 57.3589 31.0734 56.8647 30.914C56.5676 30.8182 56.2567 30.8045 55.9449 30.8045C54.0005 30.8045 52.056 30.8015 50.1116 30.7927C49.4272 30.7898 49.3438 30.6842 49.3624 29.9264C49.3732 29.4815 49.5566 29.3222 50.1292 29.3495C52.1815 29.4463 54.2348 29.3681 56.2881 29.3847C56.998 29.3906 57.3912 29.0973 57.3971 28.5722C57.402 28.1566 57.1912 27.8858 56.8029 27.7831C56.5705 27.7215 56.3185 27.7137 56.0753 27.7137C54.0495 27.7088 52.0227 27.7049 49.9969 27.7166C49.6086 27.7186 49.3281 27.6619 49.2752 27.2043C49.2389 26.8943 48.9918 26.6665 48.8378 26.3008L48.8388 26.2998ZM51.4795 48.0262C52.1521 48.0545 52.7463 47.507 52.765 46.843C52.7816 46.227 52.2119 45.6433 51.5618 45.6091C50.9048 45.5749 50.3489 46.097 50.3195 46.7756C50.291 47.4326 50.8156 47.9978 51.4804 48.0252L51.4795 48.0262ZM51.1059 50.4286H51.1157C51.1157 50.6231 51.098 50.8197 51.1206 51.0123C51.147 51.2372 51.25 51.4191 51.5177 51.422C51.7795 51.4259 51.8991 51.2636 51.9325 51.0319C51.9913 50.629 52.0021 50.2242 51.9325 49.8204C51.8913 49.5808 51.7609 49.4303 51.5108 49.4371C51.2265 49.4449 51.1235 49.6415 51.1088 49.8927C51.098 50.0707 51.1068 50.2496 51.1068 50.4286H51.1059Z" fill="white"/>
<path d="M29.2807 52.1221C23.5395 52.1221 17.7984 52.1221 12.0572 52.1221C10.7198 52.1221 10.2285 51.6332 10.2285 50.2995C10.2285 42.9994 10.2285 35.7002 10.2285 28.4001C10.2285 27.039 10.7815 26.5325 12.1435 26.5433C14.7018 26.5629 17.2601 26.5462 19.8183 26.5492C22.5404 26.5521 25.2634 26.5638 27.9854 26.5658C32.8921 26.5687 37.7978 26.5717 42.7045 26.5638C44.1224 26.5619 45.5402 26.5101 46.9562 26.5971C47.8014 26.6489 48.2054 27.1036 48.2613 27.9484C48.274 28.1429 48.274 28.3395 48.274 28.535C48.274 35.753 48.274 42.972 48.274 50.19C48.274 50.3855 48.276 50.5811 48.2652 50.7767C48.2191 51.6088 47.7396 52.1094 46.8973 52.1172C44.745 52.1368 42.5917 52.1289 40.4394 52.1289C36.7201 52.1299 33.0009 52.1289 29.2826 52.1289C29.2826 52.127 29.2826 52.125 29.2826 52.1231L29.2807 52.1221ZM29.2777 28.9799C23.9837 28.9799 18.6907 28.9799 13.3967 28.9799C12.7632 28.9799 12.6701 29.064 12.6701 29.6155C12.6681 36.0669 12.6662 42.5183 12.6642 48.9697C12.6642 49.5935 12.7593 49.6894 13.3584 49.6894C23.4886 49.6874 33.6177 49.6845 43.7478 49.6845C44.2528 49.6845 44.7578 49.7177 45.2627 49.7197C45.6863 49.7207 45.8373 49.5143 45.8364 49.0743C45.8217 42.6552 45.8246 36.2361 45.8217 29.8169C45.8217 28.9926 45.805 28.9809 44.9627 28.9799C39.7344 28.9799 34.5061 28.9799 29.2777 28.9799ZM29.2748 51.5344C29.6209 51.5237 29.9475 51.1961 29.9298 50.8774C29.9122 50.5557 29.5552 50.2086 29.2385 50.2487C28.8796 50.2946 28.6404 50.4902 28.6423 50.8881C28.6443 51.2734 28.911 51.5462 29.2748 51.5344Z" fill="white"/>
<path d="M60.4113 39.6915C60.4113 44.8405 60.4133 49.9895 60.4094 55.1395C60.4094 56.4273 59.8259 57.3122 58.7748 57.6387C58.4316 57.7453 58.0756 57.8079 57.7128 57.7727C57.3853 57.7414 57.1706 57.8675 57.1108 58.198C57.0157 58.726 56.6215 58.8013 56.192 58.7984C55.7537 58.7964 55.3213 58.7495 55.2163 58.2C55.1565 57.889 54.9683 57.7707 54.6623 57.7717C52.5541 57.7756 50.4459 57.7756 48.3387 57.7717C48.0475 57.7717 47.9004 57.8783 47.8475 58.1843C47.7553 58.7153 47.3356 58.7955 46.8826 58.8013C46.4414 58.8072 46.0295 58.7123 45.9432 58.2176C45.8746 57.8216 45.6618 57.7502 45.3304 57.7717C44.4783 57.8274 43.7556 57.5634 43.2036 56.8956C42.8721 56.4947 42.676 56.045 42.6809 55.513C42.6878 54.8775 42.6809 54.2419 42.6721 53.6064C42.6682 53.358 42.7192 53.1752 43.0222 53.2299C43.2702 53.2749 43.6527 53.0852 43.6419 53.5956C43.6301 54.1334 43.6419 54.6712 43.6497 55.208C43.6644 56.2826 44.1645 56.7822 45.2529 56.7871C47.9328 56.7988 50.6126 56.8037 53.2925 56.8076C54.5996 56.8096 55.9067 56.8047 57.2147 56.8027C57.3785 56.8027 57.5412 56.8027 57.705 56.7969C58.963 56.746 59.4396 56.264 59.4445 55.0114C59.4514 53.0236 59.4465 51.0358 59.4465 49.0479C59.4445 40.9167 59.4425 32.7855 59.4406 24.6542C59.4406 24.4587 59.4445 24.2621 59.4249 24.0685C59.3317 23.1758 58.9287 22.773 58.0286 22.6654C57.8187 22.64 57.606 22.6263 57.3942 22.6263C53.4562 22.6243 49.5174 22.6243 45.5795 22.6263C45.3677 22.6263 45.1549 22.639 44.945 22.6625C44.1125 22.7544 43.6605 23.2511 43.6429 24.0881C43.637 24.3814 43.6585 24.6757 43.635 24.9671C43.6085 25.2868 43.485 25.5205 43.0879 25.5059C42.6839 25.4912 42.6702 25.2516 42.6819 24.9476C42.6996 24.4763 42.6143 23.9991 42.7231 23.5356C43.0045 22.3398 43.9164 21.6593 45.2382 21.6593C47.8622 21.6583 50.4862 21.6651 53.1101 21.67C54.7731 21.673 56.4361 21.6788 58.0992 21.6818C59.468 21.6847 60.4103 22.8336 60.4143 24.1458C60.427 28.3825 60.4172 32.6192 60.4162 36.856C60.4162 37.8015 60.4162 38.746 60.4162 39.6915H60.4113Z" fill="white"/>
<path d="M29.2866 58.7827C26.7724 58.7827 24.2583 58.7847 21.7441 58.7788C21.551 58.7788 21.2833 58.8766 21.2205 58.5715C21.1588 58.2753 21.2519 58.0484 21.55 57.893C22.4001 57.4481 23.2326 56.9729 24.0818 56.527C24.4054 56.3569 24.5642 56.1418 24.5515 55.7585C24.526 55.0427 24.5387 54.326 24.5466 53.6093C24.5525 53.0842 24.724 52.8945 25.2506 52.8926C27.9118 52.8838 30.5731 52.8838 33.2343 52.8926C33.7805 52.8945 33.9619 53.0764 33.9805 53.6328C34.0021 54.2673 34.0168 54.9039 33.9805 55.5375C33.9501 56.0655 34.1589 56.3793 34.6227 56.613C35.3778 56.9924 36.1102 57.4168 36.8535 57.8216C37.0261 57.9154 37.1996 58.0074 37.2967 58.1892C37.4722 58.5148 37.2967 58.814 36.928 58.814C34.3805 58.815 31.8331 58.814 29.2866 58.814C29.2866 58.8033 29.2866 58.7935 29.2866 58.7827Z" fill="white"/>
<path d="M34.9994 38.9333C34.9994 40.4028 34.4156 41.8121 33.3765 42.8511C32.3375 43.8902 30.9282 44.474 29.4587 44.474C27.9892 44.474 26.5799 43.8902 25.5408 42.8511C24.5017 41.8121 23.918 40.4028 23.918 38.9333C23.918 37.4638 24.5017 36.0545 25.5408 35.0154C26.5799 33.9763 27.9892 33.3926 29.4587 33.3926C30.9282 33.3926 32.3375 33.9763 33.3765 35.0154C34.4156 36.0545 34.9994 37.4638 34.9994 38.9333ZM32.2498 36.8347C32.2003 36.7854 32.1414 36.7466 32.0766 36.7206C32.0118 36.6946 31.9424 36.6819 31.8726 36.6833C31.8027 36.6848 31.7339 36.7003 31.6702 36.7289C31.6065 36.7575 31.5492 36.7987 31.5018 36.85L29.0964 39.9147L27.6469 38.4644C27.5484 38.3726 27.4182 38.3227 27.2836 38.3251C27.149 38.3274 27.0206 38.382 26.9254 38.4771C26.8303 38.5723 26.7758 38.7007 26.7734 38.8353C26.771 38.9698 26.821 39.1001 26.9127 39.1985L28.7453 41.0318C28.7947 41.0811 28.8535 41.1199 28.9182 41.146C28.9829 41.1721 29.0522 41.1848 29.1219 41.1835C29.1916 41.1822 29.2604 41.1669 29.3241 41.1385C29.3878 41.11 29.4451 41.069 29.4926 41.018L32.2574 37.562C32.3517 37.464 32.4037 37.3329 32.4024 37.1969C32.4012 37.061 32.3466 36.9309 32.2505 36.8347H32.2498Z" fill="white"/>
</svg>
