<svg width="70" height="80" viewBox="0 0 70 80" fill="none" xmlns="http://www.w3.org/2000/svg">
<path d="M33.8704 1.30268C34.5694 0.899106 35.4306 0.899107 36.1296 1.30268L67.8704 19.6282C68.5694 20.0318 69 20.7776 69 21.5848V58.2359C69 59.043 68.5694 59.7888 67.8704 60.1924L36.1296 78.518C35.4306 78.9215 34.5694 78.9215 33.8704 78.518L2.12962 60.1924C1.43061 59.7888 1 59.043 1 58.2359V21.5848C1 20.7776 1.43061 20.0318 2.12962 19.6282L33.8704 1.30268Z" stroke="#8BD25C" stroke-width="2"/>
<path d="M33.3701 3.69642C34.3785 3.11421 35.6209 3.11421 36.6293 3.69642L65.5475 20.3923C66.5559 20.9746 67.1771 22.0505 67.1771 23.2149V56.6068C67.1771 57.7712 66.5559 58.8471 65.5475 59.4294L36.6293 76.1253C35.6209 76.7075 34.3785 76.7075 33.3701 76.1253L4.45188 59.4293C3.44347 58.8471 2.82227 57.7712 2.82227 56.6068L2.82227 23.2149C2.82227 22.0505 3.44347 20.9746 4.45188 20.3923L33.3701 3.69642Z" fill="#8BD25C"/>
<path d="M33.5152 47.2746C33.4659 47.0778 33.4319 46.8752 33.4319 46.663C33.4319 45.813 33.8536 45.0245 34.561 44.5533L34.7994 44.3937C35.3569 44.0219 35.9682 43.7533 36.609 43.5949L32.347 39.6358C31.8152 39.1429 31.5095 38.4428 31.5095 37.7159C31.5095 36.762 32.0273 35.9331 32.7911 35.4748V33.8125H36.6359V36.3767H36.6096L38.4526 38.0665C38.4846 38.0242 38.5237 37.989 38.5583 37.9486V26.7866H24.4607V45.2739L24.8369 43.77C25.0752 42.8142 25.9301 42.1462 26.915 42.1462C28.0274 42.1462 28.9655 43.0154 29.0508 44.1251L29.293 47.2746H33.5152ZM32.7911 28.6841H36.6359V31.2483H32.7911V28.6841ZM26.3831 28.6841H30.2279V31.2483H26.3831V28.6841ZM26.3831 33.8125H30.2279V36.3767H26.3831V33.8125ZM26.3831 41.5051V38.9409H30.2279V41.5051H26.3831Z" fill="white"/>
<path d="M27.773 44.2232C27.7384 43.7777 27.3616 43.4283 26.915 43.4283C26.5196 43.4283 26.1761 43.6962 26.0794 44.0809L25.5988 46.0027C25.2451 47.4195 24.7337 48.8016 24.0807 50.1099C23.7687 50.7337 23.1413 51.1209 22.4448 51.1209C21.4362 51.1209 20.6159 50.3003 20.6159 49.2913V40.4884L19.7528 41.3513C18.6564 42.4481 18.0527 43.9071 18.0527 45.4585C18.0527 45.7771 18.079 46.0983 18.1316 46.4137L19.1286 52.3959C19.251 53.1344 19.4554 53.8627 19.7342 54.5614L20.409 56.2493H27.2303L27.5571 55.4319C28.0537 54.1915 28.3055 52.8844 28.3055 51.5472C28.3055 51.2799 28.2953 51.0119 28.2748 50.7452L27.773 44.2232Z" fill="white"/>
<path d="M28.9463 22.9403H34.0727C34.4264 22.9403 34.7135 22.6525 34.7135 22.2993V21.6582H28.3055V22.2993C28.3055 22.6525 28.5926 22.9403 28.9463 22.9403Z" fill="white"/>
<path d="M22.4448 49.8388C22.653 49.8388 22.8408 49.7228 22.9343 49.5356C23.0208 49.3631 23.0977 49.1862 23.1791 49.0105V25.5045H38.5923C38.7428 24.2057 39.7361 23.1685 41.017 22.9621C40.7659 22.2076 40.0623 21.6582 39.2247 21.6582H35.9951V22.2993C35.9951 23.3596 35.1326 24.2224 34.0727 24.2224H28.9463C27.8864 24.2224 27.0239 23.3596 27.0239 22.2993V21.6582H23.8199C22.76 21.6582 21.8975 22.5211 21.8975 23.5814V49.2913C21.8975 49.5933 22.1436 49.8388 22.4448 49.8388Z" fill="white"/>
<path d="M20.6159 57.5314H27.0239V58.8135H20.6159V57.5314Z" fill="white"/>
<path d="M39.8399 30.5983V37.1235C39.8668 37.1159 39.8912 37.1037 39.9181 37.0966C40.0898 36.4113 40.5326 35.8357 41.1215 35.4793V31.6477C40.6031 31.4278 40.1558 31.0675 39.8399 30.5983Z" fill="white"/>
<path d="M38.5224 50.0894C37.8329 49.5144 36.9589 49.1977 36.0617 49.1977H35.9663C35.3255 49.1977 34.7462 48.9509 34.2989 48.5567H29.3923L29.5403 50.4798H32.1503C32.504 50.4798 32.7911 50.767 32.7911 51.1209C32.7911 52.1831 31.9305 53.044 30.8687 53.044H29.4801C29.3968 53.6953 29.2654 54.3383 29.0738 54.9672H39.1991C40.259 54.9672 41.1215 54.1043 41.1215 53.044V51.8895C40.5461 51.6459 40.0027 51.3228 39.5163 50.9177L38.5224 50.0894ZM37.9175 51.7619C37.9175 52.4703 37.344 53.044 36.6359 53.044C35.9278 53.044 35.3543 52.4703 35.3543 51.7619V51.1209C35.3543 50.767 35.6414 50.4798 35.9951 50.4798H37.2767C37.6304 50.4798 37.9175 50.767 37.9175 51.1209V51.7619Z" fill="white"/>
<path d="M39.8399 25.8391C39.8399 25.9725 39.8559 26.1065 39.8892 26.2379L40.6697 29.3636C40.853 30.0964 41.5085 30.6073 42.2628 30.6073H44.9663V32.2099C44.9663 32.4554 45.2822 32.615 45.4802 32.4657L47.9569 30.6073H52.7962C53.5511 30.6073 54.206 30.0957 54.3892 29.3636L55.1704 26.2372C55.203 26.1065 55.2191 25.9725 55.2191 25.8391C55.2191 24.9333 54.4828 24.1968 53.5773 24.1968H41.4816C40.5762 24.1968 39.8399 24.9333 39.8399 25.8391ZM52.6559 29.3252H51.3743V28.0431H52.6559V29.3252ZM42.4031 25.4789H52.6559V26.761H42.4031V25.4789ZM42.4031 28.0431H50.0927V29.3252H42.4031V28.0431Z" fill="white"/>
<path d="M52.0151 45.3514V43.6296C52.0151 42.2693 51.4749 40.9647 50.5137 40.0031L46.6458 36.1338C46.3914 35.8793 46.0454 35.7357 45.6846 35.7357C44.9342 35.7357 44.3255 36.3447 44.3255 37.0953C44.3255 37.4563 44.469 37.8018 44.7234 38.0569L46.2479 39.582L43.4418 36.7748C43.1874 36.5203 42.8414 36.3767 42.4806 36.3767C41.7303 36.3767 41.1215 36.9857 41.1215 37.7364C41.1215 38.0973 41.265 38.4428 41.5194 38.698C41.265 38.4435 40.919 38.2999 40.5582 38.2999C39.8079 38.2999 39.1991 38.9089 39.1991 39.6595V39.8916C39.1991 40.273 39.3587 40.6365 39.64 40.8942L35.0973 36.7287C34.8506 36.5024 34.5277 36.3767 34.1925 36.3767H34.1297C33.3903 36.3767 32.7911 36.9761 32.7911 37.7159C32.7911 38.0883 32.9462 38.4441 33.2192 38.6973L40.6281 45.5796C39.8662 45.0213 38.9447 44.7104 37.9886 44.7104C37.1062 44.7104 36.2437 44.9719 35.51 45.4611L35.271 45.6207C34.923 45.8527 34.7135 46.2438 34.7135 46.663C34.7135 47.3547 35.2742 47.9156 35.9656 47.9156H36.0611C37.2607 47.9156 38.4218 48.3362 39.3433 49.1041L40.3365 49.9324C41.258 50.7004 42.4191 51.1209 43.618 51.1209H46.2479L50.0927 54.9672L55.8599 49.1977L52.0151 45.3514Z" fill="white"/>
</svg>
