<svg width="70" height="80" viewBox="0 0 70 80" fill="none" xmlns="http://www.w3.org/2000/svg">
<path d="M33.8704 1.30268C34.5694 0.899106 35.4306 0.899107 36.1296 1.30268L67.8704 19.6282C68.5694 20.0318 69 20.7776 69 21.5848V58.2359C69 59.043 68.5694 59.7888 67.8704 60.1924L36.1296 78.518C35.4306 78.9215 34.5694 78.9215 33.8704 78.518L2.12962 60.1924C1.43061 59.7888 1 59.043 1 58.2359V21.5848C1 20.7776 1.43061 20.0318 2.12962 19.6282L33.8704 1.30268Z" stroke="#8BD25C" stroke-width="2"/>
<path d="M33.3701 3.69544C34.3785 3.11324 35.6209 3.11324 36.6293 3.69544L65.5475 20.3914C66.5559 20.9736 67.1771 22.0495 67.1771 23.2139V56.6058C67.1771 57.7702 66.5559 58.8462 65.5475 59.4284L36.6293 76.1243C35.6209 76.7065 34.3785 76.7065 33.3701 76.1243L4.45188 59.4284C3.44347 58.8462 2.82227 57.7702 2.82227 56.6058V23.2139C2.82227 22.0495 3.44347 20.9736 4.45188 20.3914L33.3701 3.69544Z" fill="#8BD25C"/>
<path d="M45.8607 52.6732C43.0187 52.6732 40.1766 52.6732 37.328 52.6732C36.8066 52.6732 36.7805 52.6537 36.7805 52.1192C36.7805 47.7257 36.7805 43.3323 36.787 38.9323C36.787 38.5803 36.7088 38.4369 36.3307 38.3652C34.4925 38.0067 32.6608 37.6091 30.8226 37.2179C28.3716 36.6965 25.9272 36.1685 23.4828 35.6405C23.2286 35.5818 23.0917 35.6405 23.0591 35.9208C23.033 36.1359 22.9874 36.351 22.9418 36.5596C22.9222 36.6443 22.9027 36.7356 22.7918 36.7551C22.681 36.7682 22.6484 36.6769 22.6093 36.5987C22.2964 36.0511 21.977 35.5101 21.6772 34.9626C21.0449 33.8088 19.5913 33.359 18.3788 34.0239C17.2251 34.6562 16.834 36.1294 17.5119 37.3353C18.6461 39.3625 19.8064 41.3702 20.9536 43.3909C21.0579 43.58 21.1557 43.7755 21.2796 43.958C21.9118 44.9293 22.8375 45.2096 23.9326 45.0923C24.5844 45.0206 25.2363 45.0401 25.8816 45.0466C26.2923 45.0466 26.6573 45.2552 27.0354 45.3791C28.4955 45.8745 29.9752 46.3047 31.4027 46.8718C32.6673 47.3737 33.4365 48.6774 33.2409 50.0659C33.0584 51.35 32.185 52.3473 30.8226 52.6472C30.5162 52.7124 30.1968 52.7189 29.8839 52.7189C26.1489 52.7189 22.4203 52.7319 18.6852 52.7189C17.7661 52.7189 16.8405 52.6863 15.954 52.3734C14.5916 51.8845 13.7442 50.9067 13.2423 49.577C12.975 48.8665 12.9229 48.1168 12.8186 47.3802C12.6752 46.2917 12.6426 45.1966 12.6426 44.1015C12.6426 42.9868 12.7078 41.8721 12.8707 40.764C13.151 38.8541 13.6725 37.0094 14.2722 35.1907C14.7937 33.6132 15.6932 32.3161 17.1729 31.4882C18.444 30.7777 19.7738 30.6473 21.1622 31.1101C21.3056 31.1558 21.3969 31.2666 21.4947 31.3644C23.3003 33.0722 25.3862 33.4763 27.7198 32.6876C27.9675 32.6029 28.2022 32.5898 28.4564 32.642C31.0964 33.2026 33.7364 33.7632 36.3763 34.3237C36.6957 34.3889 37.0151 34.4606 37.328 34.5389C38.3971 34.7996 39.0098 35.6666 38.899 36.7617C38.8664 37.0419 39.0228 37.0354 39.2053 37.0354C40.4764 37.0354 41.7476 37.0354 43.0121 37.0354C46.832 37.0354 50.6518 37.0354 54.4716 37.0354C54.954 37.0354 54.954 37.0354 54.9605 37.5308C54.9605 42.3806 54.9605 47.2303 54.9605 52.0801C54.9605 52.4712 54.7606 52.6667 54.3608 52.6667C51.5253 52.6667 48.6962 52.6667 45.8607 52.6667V52.6732ZM42.8948 40.5228C42.7949 40.9791 42.5211 41.2073 42.0735 41.2073C42.0213 41.2073 41.9627 41.2073 41.9105 41.2073C40.6329 41.2073 39.3488 41.2138 38.0711 41.2073C37.7517 41.2073 37.6018 41.2855 37.6344 41.6244C37.654 41.8265 37.654 42.0351 37.6344 42.2437C37.6018 42.5631 37.7322 42.6544 38.0451 42.6544C39.3683 42.6413 40.6916 42.6544 42.0148 42.6544C42.4646 42.6544 42.5037 42.6935 42.5037 43.0911C42.5037 43.4692 42.4515 43.5083 42.0278 43.5083C40.7242 43.5083 39.4205 43.5083 38.1233 43.5083C37.9603 43.5083 37.68 43.4105 37.6735 43.6778C37.667 43.9841 37.9603 43.8733 38.1298 43.8733C39.453 43.8798 40.7763 43.8798 42.0995 43.8733C42.3864 43.8733 42.5167 43.9711 42.5102 44.2709C42.5037 44.6751 42.4581 44.7337 42.0344 44.7337C40.6981 44.7337 39.3618 44.7337 38.032 44.7337C37.7648 44.7337 37.6148 44.7729 37.6735 45.0923C37.6996 45.2552 37.6474 45.4377 37.6474 45.6072C37.6474 47.5628 37.6474 49.5118 37.6409 51.4673C37.6409 51.7411 37.7452 51.8258 38.0059 51.8258C40.7176 51.8258 43.4358 51.8258 46.1475 51.8258C46.4017 51.8258 46.4995 51.7346 46.493 51.4804C46.48 50.809 46.493 50.1376 46.493 49.4596C46.493 48.8469 46.506 48.8339 47.1057 48.8339C49.309 48.8339 51.5122 48.8339 53.7155 48.8339C53.9501 48.8339 54.1131 48.8078 54.1131 48.5079C54.1066 46.7284 54.1131 44.9489 54.1131 43.1693C54.1131 42.9281 54.0153 42.8499 53.7806 42.8499C53.2461 42.8564 52.7181 42.8629 52.1836 42.8499C51.9164 42.8434 51.799 42.9346 51.7338 43.1954C51.6165 43.6647 51.4079 44.0884 51.0364 44.4209C50.2411 45.1183 49.322 45.1379 48.3703 44.8837C48.0965 44.812 47.8423 44.8185 47.5751 44.8706C47.2948 44.9228 47.2557 45.0271 47.3534 45.2813C47.6272 46.0244 47.5555 46.7284 47.0797 47.3737C46.9884 47.4976 46.8971 47.6279 46.7146 47.478C46.5647 47.3542 46.4148 47.2434 46.5777 47.0282C46.9688 46.5068 46.9363 45.9397 46.7342 45.353C46.6429 45.0857 46.4995 44.9554 46.2062 44.9163C45.4957 44.8185 44.9612 44.4404 44.6222 43.8016C44.2311 43.065 44.1855 42.2698 44.205 41.4615C44.2376 40.223 44.896 39.343 46.0758 38.9779C46.141 38.9584 46.1997 38.9388 46.2649 38.9193C46.4213 38.8802 46.506 38.7824 46.4995 38.6129C46.4995 38.4695 46.4995 38.3326 46.4995 38.1892C46.506 37.9871 46.4148 37.8959 46.2062 37.8959C45.1828 37.8959 44.1659 37.8959 43.1425 37.8959C42.9078 37.8959 42.8427 38.0067 42.8492 38.2153C42.8557 38.5738 42.8622 38.9323 42.8492 39.2908C42.8361 39.532 42.9209 39.7015 43.0969 39.8579C43.8595 40.5424 44.1268 41.4093 44.0095 42.4132C43.9508 42.9216 43.8856 43.4235 43.8335 43.932C43.8139 44.1471 43.7552 44.284 43.5075 44.2709C43.2533 44.2579 43.2077 44.0949 43.2272 43.8929C43.2794 43.417 43.3315 42.9477 43.3967 42.4718C43.488 41.7809 43.3967 41.1355 42.9144 40.5293L42.8948 40.5228ZM50.215 42.8499C50.1107 42.8499 50.0065 42.8499 49.8956 42.8499C48.9831 42.8499 48.077 42.8499 47.1644 42.8499C46.48 42.8499 46.4865 42.8499 46.48 42.1785C46.48 41.9504 46.5256 41.7157 46.4148 41.4224C46.2388 41.8591 46.2714 42.2372 46.33 42.6087C46.4213 43.2215 47.36 44.0297 47.9792 44.0623C48.0314 44.0623 48.09 44.0623 48.1422 44.0493C48.9048 43.782 49.5958 43.3975 50.2216 42.8434L50.215 42.8499ZM44.8178 41.3572C44.7526 42.0938 44.8243 42.8043 45.1306 43.4822C45.3001 43.8603 45.6 44.0949 45.978 44.2383C46.0497 44.2644 46.128 44.297 46.1866 44.2253C46.2323 44.1666 46.1866 44.1015 46.1606 44.0428C46.0497 43.8472 45.9976 43.6256 45.8281 43.4561C45.248 42.876 44.7917 42.2306 44.8112 41.3572H44.8178ZM49.0548 44.3492C50.1108 44.5121 51.0168 43.9255 51.0624 43.0715C50.4432 43.5735 49.8044 43.9776 49.0548 44.3492ZM45.6717 42.1915C45.7108 41.9047 45.6717 41.6766 45.7434 41.455C45.8477 41.1355 46.0172 40.8683 46.33 40.7118C46.5451 40.601 46.506 40.399 46.4539 40.223C46.4213 40.1121 46.3105 40.1708 46.2323 40.2034C45.4826 40.5228 45.2023 41.4419 45.6652 42.185L45.6717 42.1915Z" fill="white"/>
<path d="M31.0573 27.2316C31.1355 30.0802 28.7041 32.6746 25.6274 32.6811C22.6745 32.6811 20.1779 30.1976 20.1649 27.2642C20.1519 24.2201 22.7527 21.7235 25.7382 21.7692C28.3912 21.8083 31.155 24.181 31.0573 27.2316Z" fill="white"/>
<path d="M19.5717 34.1152C20.3539 34.1477 20.9536 34.5389 21.3513 35.2429C22.1791 36.69 23.0069 38.1436 23.8283 39.5972C23.9978 39.8905 24.1672 40.1773 24.3302 40.4772C24.4149 40.6336 24.5258 40.6988 24.6952 40.6858C25.8294 40.588 26.9702 40.6401 28.1044 40.5228C28.8475 40.4446 29.5971 40.5033 30.3467 40.4446C31.2463 40.3794 32.1458 40.3664 33.0454 40.3598C34.0427 40.3598 34.8054 40.9856 35.027 41.9569C35.2617 42.9868 34.4012 44.1601 33.3518 44.2709C32.387 44.3752 31.4223 44.3426 30.4576 44.3883C28.1435 44.5121 25.8229 44.6099 23.5024 44.6946C22.668 44.7272 22.0031 44.3752 21.5794 43.6386C20.3409 41.4745 19.1089 39.3039 17.8704 37.1397C17.023 35.6535 18.1572 34.1477 19.5587 34.1086L19.5717 34.1152Z" fill="white"/>
<path d="M29.2842 56.6495C29.4081 56.6756 29.5385 56.6951 29.6623 56.7212C29.8448 56.7603 29.9947 56.8451 30.0078 57.0537C30.0208 57.2492 29.8774 57.3535 29.721 57.3991C29.4276 57.4774 29.1343 57.5621 28.8345 57.6012C27.6937 57.7316 26.5465 57.8424 25.4057 57.9662C25.158 57.9923 25.0472 57.9206 25.0146 57.6664C24.982 57.4057 25.1515 57.3731 25.3275 57.3535C25.9337 57.2883 26.5334 57.2427 27.1397 57.1775C27.3026 57.158 27.4591 57.1188 27.6546 57.0797C27.5177 56.9102 27.3157 56.7994 27.4069 56.5713C27.4982 56.3431 27.7133 56.2714 27.9219 56.2193C28.3716 56.102 28.8345 56.0237 29.2973 55.9781C30.2685 55.8934 31.2333 55.776 32.2175 55.7826C33.1888 55.7956 34.1405 55.6391 35.0661 55.3458C35.1769 55.3132 35.2943 55.2676 35.3855 55.1959C36.3372 54.5115 37.4388 54.3159 38.5665 54.166C39.427 54.0552 40.2939 54.0226 41.1609 54.0812C42.2038 54.1529 43.2272 54.2703 44.2246 54.6157C44.8373 54.8243 45.5022 54.883 46.1019 55.1437C46.669 55.3914 47.2035 55.6652 47.4512 56.291C47.4838 56.3627 47.536 56.4148 47.6142 56.4409C48.3899 56.7147 49.1786 56.8516 50.0065 56.8125C51.069 56.7603 52.1315 56.7408 53.194 56.819C54.2695 56.8972 55.3255 57.0797 56.375 57.3079C56.7857 57.3991 56.8443 57.4774 56.7791 57.7772C56.7335 57.9728 56.6292 58.0249 56.4467 57.9728C55.7688 57.7837 55.0713 57.6794 54.3738 57.5816C53.018 57.3861 51.6556 57.3144 50.2867 57.4252C49.3872 57.4969 48.5072 57.3796 47.6533 57.1188C47.4317 57.0471 47.2817 57.0797 47.1057 57.2492C46.5777 57.7707 45.8803 57.9728 45.1828 58.1488C43.3446 58.605 41.4868 58.5985 39.629 58.2987C38.5144 58.1227 37.4388 57.7772 36.3698 57.4317C35.8483 57.2622 35.2747 57.0471 35.0661 56.4865C34.9032 56.0368 34.6946 56.0889 34.3361 56.1737C33.6321 56.3366 32.9085 56.4018 32.1784 56.4083C31.2137 56.4083 30.2555 56.4931 29.2842 56.656V56.6495ZM40.3135 57.4187C40.672 57.4187 41.011 57.4448 41.3499 57.4187C42.2234 57.347 43.0708 57.1514 43.8139 56.6691C44.2506 56.3888 44.2572 56.0172 43.8139 55.7434C43.1425 55.3263 42.4124 55.0525 41.5976 55.1177C40.8936 55.1698 40.1962 55.2089 39.4987 55.3523C38.8012 55.4892 38.1233 55.6783 37.5236 56.0563C37.126 56.304 37.1129 56.63 37.4845 56.9168C37.7126 57.0993 37.9734 57.2492 38.2732 57.2883C38.9642 57.3731 39.6486 57.4839 40.32 57.4187H40.3135ZM38.723 54.87C37.6605 54.9352 36.7153 55.3849 35.7571 55.7695C35.4898 55.8803 35.4703 56.1671 35.7049 56.3823C35.894 56.5583 36.1286 56.6821 36.3698 56.7864C36.5328 56.8581 36.624 56.8255 36.5849 56.6234C36.5393 56.3823 36.624 56.1737 36.7609 55.9846C36.9891 55.6652 37.302 55.4566 37.6474 55.2871C37.9929 55.1177 38.3645 55.0134 38.723 54.8765V54.87ZM43.2272 57.7968C43.7878 57.7968 44.3419 57.712 44.8895 57.5816C45.4566 57.4448 46.0237 57.3014 46.5126 56.9559C46.669 56.8451 46.7342 56.7473 46.5126 56.6365C46.33 56.5452 46.154 56.4409 45.9846 56.3236C45.8542 56.2388 45.802 56.278 45.7434 56.4018C45.5543 56.7864 45.2284 57.0341 44.8569 57.2231C44.3419 57.4839 43.7944 57.6468 43.2403 57.8033L43.2272 57.7968ZM44.4071 55.398C44.7004 55.7239 44.8634 56.0759 44.72 56.5713C45.0263 56.4083 45.2023 56.2454 45.1502 55.9977C45.072 55.6326 44.7265 55.5218 44.4071 55.398Z" fill="white"/>
<path d="M48.8918 36.5205C48.2595 36.5205 47.6337 36.5205 47.0014 36.5205C46.6168 36.5205 46.5582 36.4553 46.5517 36.0577C46.543 35.5796 46.7798 35.3406 47.2622 35.3406C48.4551 35.3406 49.6479 35.3471 50.8408 35.3406C51.1407 35.3406 51.2971 35.4188 51.271 35.7448C51.271 35.7774 51.2776 35.81 51.2841 35.8425C51.3427 36.4683 51.2841 36.5335 50.6518 36.5335C50.0651 36.5335 49.4785 36.5335 48.8918 36.5335V36.5205Z" fill="white"/>
<path d="M53.1158 55.2806C52.9724 55.2806 52.8746 55.248 52.842 55.1242C52.7768 54.8765 52.6073 54.883 52.4118 54.9221C51.8903 55.0264 51.3688 55.1177 50.8473 55.2089C50.6583 55.2415 50.4953 55.248 50.4562 55.0003C50.4236 54.7787 50.5214 54.6809 50.73 54.6483C51.2776 54.5571 51.8186 54.4463 52.3596 54.355C52.5421 54.3224 52.6725 54.2833 52.6269 54.0486C52.5812 53.814 52.7638 53.7944 52.9267 53.7618C53.1027 53.7292 53.194 53.814 53.2266 53.9769C53.2918 54.3159 53.3504 54.6614 53.4026 55.0003C53.4352 55.235 53.2657 55.2611 53.1223 55.2806H53.1158Z" fill="white"/>
<path d="M56.4206 52.1061C56.4467 51.8584 56.4858 51.6107 56.4989 51.363C56.5119 51.174 56.6031 51.0893 56.7857 51.1023C56.9551 51.1088 57.092 51.1544 57.0594 51.3695C57.0334 51.5651 57.1377 51.6303 57.3006 51.6238C57.8547 51.5977 58.3957 51.7476 58.9498 51.7607C59.1519 51.7607 59.3605 51.7737 59.3409 52.067C59.3214 52.3538 59.1258 52.3799 58.8977 52.3538C58.3827 52.2952 57.8677 52.243 57.3528 52.1844C57.1898 52.1648 57.0073 52.1322 56.9812 52.3734C56.9551 52.6146 56.7922 52.6341 56.6031 52.6081C56.3685 52.5755 56.388 52.4125 56.4141 52.243C56.4141 52.1974 56.4206 52.1583 56.4272 52.1127C56.4272 52.1127 56.4272 52.1127 56.4206 52.1127V52.1061Z" fill="white"/>
<path d="M42.3668 36.2532C42.3798 36.4814 42.2364 36.5205 42.0995 36.5596C41.9561 36.5987 41.8323 36.5661 41.8062 36.3966C41.7736 36.1815 41.6628 36.175 41.4868 36.2206C40.9327 36.3575 40.3722 36.4814 39.8116 36.6182C39.616 36.6639 39.4922 36.6182 39.4531 36.4162C39.4139 36.2271 39.4726 36.1098 39.6812 36.0642C40.1636 35.9534 40.6524 35.8425 41.1348 35.7187C41.3695 35.66 41.6498 35.6535 41.5846 35.2689C41.552 35.0929 41.7345 35.0929 41.8584 35.0603C41.9822 35.0277 42.08 35.0603 42.1126 35.1907C42.2104 35.5557 42.2951 35.9273 42.3798 36.2597L42.3668 36.2532Z" fill="white"/>
<path d="M44.1464 34.8713C44.1464 35.1451 44.1464 35.4123 44.1464 35.6861C44.1464 35.8556 44.1789 35.986 44.3875 35.999C44.6222 36.012 44.6678 36.162 44.6483 36.3575C44.6287 36.5596 44.4853 36.5922 44.3223 36.5922C44.029 36.5922 43.7357 36.5922 43.4424 36.5922C43.2598 36.5922 43.123 36.5335 43.1034 36.3249C43.0838 36.1294 43.1621 36.012 43.3641 35.999C43.5727 35.986 43.5988 35.8491 43.5988 35.6796C43.5988 35.1516 43.5988 34.6171 43.5988 34.0891C43.5988 33.9 43.5988 33.711 43.8726 33.711C44.1529 33.711 44.1398 33.9066 44.1398 34.0956C44.1398 34.3563 44.1398 34.6171 44.1398 34.8778L44.1464 34.8713Z" fill="white"/>
<path d="M41.3434 46.6893C42.2886 46.6893 43.2272 46.6893 44.1724 46.6893C44.6157 46.6893 44.6613 46.7349 44.6613 47.1717C44.6613 48.3971 44.6613 49.6226 44.6613 50.8481C44.6613 51.2196 44.57 51.337 44.2311 51.2913C43.677 51.2196 43.1295 51.3435 42.5754 51.2978C41.4933 51.2131 40.4113 51.363 39.3292 51.2653C39.0163 51.2392 38.7034 51.2913 38.3905 51.2913C38.1363 51.2913 38.019 51.1675 38.019 50.9067C38.019 49.6291 38.019 48.345 38.019 47.0674C38.019 46.7675 38.1819 46.6763 38.4557 46.6828C39.4205 46.6828 40.3852 46.6828 41.3499 46.6828L41.3434 46.6893Z" fill="white"/>
<path d="M52.4639 47.8561C52.0728 47.8561 51.6491 47.4454 51.6556 47.0739C51.6687 46.6828 52.0467 46.3112 52.4378 46.2982C52.8355 46.2851 53.2461 46.6893 53.2396 47.0804C53.2396 47.465 52.842 47.8496 52.4639 47.8561Z" fill="white"/>
<path d="M50.4953 46.2982C50.8799 46.2917 51.2841 46.6697 51.2906 47.0543C51.3036 47.4454 50.8995 47.8496 50.4953 47.8496C50.1107 47.8496 49.7262 47.4585 49.7262 47.0739C49.7262 46.6697 50.0847 46.3047 50.4953 46.2982Z" fill="white"/>
</svg>
