<svg width="70" height="80" viewBox="0 0 70 80" fill="none" xmlns="http://www.w3.org/2000/svg">
<path d="M33.8712 1.30317C34.5698 0.898941 35.4302 0.898942 36.1288 1.30317L67.8696 19.6699C68.5684 20.0743 69 20.8224 69 21.6333V58.3667C69 59.1776 68.5684 59.9257 67.8695 60.3301L36.1288 78.6968C35.4302 79.1011 34.5698 79.1011 33.8712 78.6968L2.13046 60.3301C1.43162 59.9257 1 59.1776 1 58.3667V21.6333C1 20.8224 1.43162 20.0743 2.13046 19.6699L33.8712 1.30317Z" stroke="#8BD25C" stroke-width="2"/>
<path d="M33.3701 3.70424C34.3785 3.12072 35.6209 3.12072 36.6293 3.70424L65.5475 20.4377C66.5559 21.0212 67.1771 22.0996 67.1771 23.2666V56.7335C67.1771 57.9005 66.5559 58.9789 65.5475 59.5624L36.6293 76.2959C35.6209 76.8794 34.3785 76.8794 33.3701 76.2958L4.45188 59.5624C3.44347 58.9789 2.82227 57.9005 2.82227 56.7335V23.2666C2.82227 22.0996 3.44347 21.0212 4.45188 20.4377L33.3701 3.70424Z" fill="#8BD25C"/>
<path d="M34.9364 58.2271C29.8612 58.2271 24.7854 58.2219 19.7103 58.2374C19.3271 58.2387 19.2601 58.1253 19.2754 57.773C19.391 55.1314 19.4555 52.4872 19.6043 49.8482C19.6988 48.1741 20.0845 46.5554 20.912 45.0739C21.8449 43.403 23.2638 42.3499 25.0453 41.7437C26.6078 41.2117 28.162 40.6558 29.7194 40.1089C29.8829 40.0516 30.0234 39.9885 30.1409 40.2049C30.9129 41.6213 32.1625 42.3634 33.6854 42.6584C35.4568 43.0017 37.1144 42.7061 38.5875 41.6014C39.0645 41.2439 39.4483 40.7962 39.7254 40.2661C39.8308 40.0645 39.9374 40.0168 40.1494 40.0928C41.7835 40.6745 43.4194 41.2497 45.0566 41.823C47.5834 42.708 49.0737 44.5393 49.8125 47.0759C50.3214 48.8234 50.3642 50.6218 50.4262 52.4196C50.4887 54.2174 50.5373 56.0158 50.612 57.8136C50.626 58.1543 50.529 58.2368 50.1982 58.2361C45.1109 58.2258 40.0236 58.229 34.9364 58.229V58.2271ZM34.9708 57.2912C37.9745 57.2912 40.9783 57.2873 43.982 57.297C44.2604 57.2976 44.3542 57.23 44.3485 56.9363C44.3306 55.9707 44.3498 55.0045 44.3389 54.0389C44.3325 53.4489 44.3785 52.8582 44.2904 52.2682C44.1269 51.1706 43.9845 50.0698 43.8326 48.9709C43.5254 46.7486 43.2144 44.5264 42.9169 42.3028C42.8862 42.0735 42.7873 41.9756 42.5816 41.9073C41.9233 41.6896 41.2656 41.468 40.6188 41.2175C40.3129 41.0989 40.2433 41.1505 40.2446 41.4835C40.2561 44.2964 40.2458 47.1087 40.2593 49.9216C40.2605 50.2469 40.1699 50.3223 39.8576 50.321C36.5908 50.3094 33.3234 50.3094 30.0566 50.321C29.7437 50.3223 29.6511 50.2431 29.653 49.9197C29.6671 47.6865 29.6607 45.4533 29.6607 43.2201C29.6607 42.6043 29.6556 41.9885 29.6633 41.3734C29.6658 41.1537 29.6115 41.1002 29.3925 41.184C28.913 41.3688 28.4328 41.575 27.9341 41.6832C27.2317 41.8358 26.8409 42.1792 26.8952 42.9444C26.9067 43.1086 26.8486 43.2781 26.8256 43.4449C26.5235 45.6317 26.2138 47.8173 25.9246 50.0054C25.8001 50.949 25.5919 51.8856 25.5759 52.8402C25.5529 54.1916 25.5804 55.5443 25.5625 56.8963C25.5581 57.2145 25.6411 57.3002 25.9597 57.2989C28.9634 57.286 31.9671 57.2912 34.9708 57.2912Z" fill="white"/>
<path d="M35.0277 22.0674C36.7038 22.1273 38.3666 22.4564 39.8257 23.4742C41.0019 24.2948 41.71 25.4124 41.7937 26.8797C41.8543 27.938 42.0236 28.995 41.8416 30.0572C41.8199 30.1854 41.8326 30.3007 41.9571 30.3709C42.2279 30.5242 42.2496 30.7728 42.2496 31.053C42.2502 32.4914 41.9986 33.884 41.5293 35.2393C41.4885 35.3571 41.4514 35.4834 41.3339 35.5285C40.984 35.6618 40.9061 35.9736 40.7937 36.2815C40.083 38.2235 38.933 39.83 37.2249 41.0101C36.7447 41.3418 36.2173 41.4932 35.6471 41.5318C34.9523 41.5788 34.2595 41.5737 33.5737 41.4326C33.0903 41.3334 32.6944 41.0494 32.319 40.7569C30.7411 39.5279 29.6473 37.9478 29.0253 36.0361C28.9806 35.8995 28.9609 35.7417 28.8057 35.6824C28.473 35.5555 28.3785 35.2695 28.2795 34.9616C27.8568 33.6418 27.6205 32.2956 27.6672 30.9042C27.6716 30.7638 27.6257 30.5925 27.7783 30.5088C28.0803 30.3439 28.0516 30.1055 28.0241 29.8066C27.9104 28.5499 27.9762 27.2862 28.2406 26.0623C28.5739 24.519 29.6633 23.565 31.0323 22.917C32.2762 22.3283 33.5999 22.0944 35.0277 22.0674ZM41.0038 32.1616C40.8901 32.2679 40.8557 32.2956 40.8256 32.3284C40.2407 32.961 39.5479 33.2489 38.6942 32.9887C38.4809 32.9236 38.4388 33.028 38.3851 33.2057C38.2523 33.645 37.7389 33.8589 37.2996 33.6798C36.8705 33.5053 36.709 33.1053 36.9369 32.6866C37.0774 32.4289 36.8986 32.465 36.7658 32.4405C35.5896 32.2215 34.4127 32.2163 33.2327 32.4205C32.9907 32.4624 32.7896 32.4701 33.0182 32.7871C33.112 32.9172 33.098 33.0872 33.0348 33.2405C32.8936 33.5813 32.6293 33.7326 32.2723 33.732C31.9007 33.732 31.6032 33.5452 31.5106 33.1935C31.4505 32.9648 31.3605 32.9429 31.1606 33.0003C30.381 33.2238 29.7277 32.9829 29.1639 32.4257C29.0981 32.3606 29.0637 32.2202 28.9021 32.2788C28.9634 33.0524 29.1562 33.7971 29.374 34.5359C29.411 34.6621 29.5094 34.7349 29.6224 34.7806C29.895 34.8908 29.9998 35.1104 30.0719 35.3829C30.2948 36.228 30.6549 37.0119 31.1306 37.7449C31.3011 38.0084 31.3982 37.9775 31.5476 37.7346C31.7238 37.448 31.9288 37.1794 32.121 36.9031C32.4141 36.4805 32.8055 36.2589 33.3253 36.2287C34.414 36.1649 35.5002 36.1649 36.5883 36.2299C37.0934 36.2602 37.479 36.4754 37.7664 36.8844C37.9739 37.1794 38.1885 37.4705 38.3807 37.7759C38.5269 38.0084 38.6188 37.9788 38.7548 37.7662C39.2005 37.0738 39.5639 36.3433 39.7791 35.5452C39.8729 35.1987 39.9662 34.874 40.3506 34.7381C40.4176 34.7143 40.484 34.6254 40.5077 34.552C40.7477 33.8074 40.9361 33.0511 41.0032 32.161L41.0038 32.1616ZM30.1115 28.1551C30.1115 28.4443 30.1358 28.7361 30.1051 29.0227C30.0668 29.3854 30.2143 29.4144 30.5163 29.3519C31.5834 29.129 32.6631 29.0047 33.7525 28.9557C35.6713 28.8694 37.5774 28.9757 39.4617 29.3661C39.721 29.4195 39.804 29.3538 39.7867 29.082C39.7523 28.5525 39.7689 28.0192 39.7242 27.491C39.6309 26.3947 39.4962 25.3061 38.9011 24.3405C38.7625 24.1157 38.5875 23.9624 38.3404 23.8639C36.4146 23.0967 34.4626 23.0858 32.4601 23.536C31.3471 23.7866 30.7571 24.4384 30.4914 25.5083C30.2743 26.3805 30.1805 27.263 30.1121 28.1557L30.1115 28.1551ZM34.9408 29.6302C33.1778 29.6501 31.4301 29.817 29.706 30.2028C29.1684 30.323 29.0426 30.6279 29.3287 31.1175C29.8395 31.9864 30.3752 32.1571 31.2353 31.8453C33.7359 30.9403 36.2524 30.9687 38.7561 31.8685C39.5205 32.1436 40.0409 31.9761 40.4681 31.2843C40.5881 31.0904 40.6826 30.8804 40.8007 30.6852C40.9336 30.4649 40.9067 30.3664 40.6315 30.3001C38.76 29.8485 36.8609 29.6527 34.9408 29.6302ZM39.9413 24.9892C40.3665 26.4076 40.3723 27.8639 40.4023 29.3177C40.4036 29.3654 40.4004 29.4182 40.4189 29.4601C40.5115 29.6649 40.7216 29.6495 40.8818 29.6521C41.0274 29.6546 40.9655 29.4814 40.9604 29.3873C40.9138 28.4978 40.8723 27.6076 40.8046 26.72C40.7528 26.0359 40.4444 25.4652 39.9413 24.9892ZM29.9532 24.993C29.6186 25.281 29.3759 25.6301 29.2501 26.0443C28.9053 27.1799 29.0688 28.3657 28.934 29.5226C28.9193 29.6469 28.98 29.6855 29.1115 29.6585C29.3593 29.6076 29.4928 29.5168 29.4998 29.2147C29.5196 28.3966 29.5266 27.5773 29.6256 26.7618C29.6977 26.1666 29.8286 25.5856 29.9532 24.993ZM33.2895 37.7469C34.0469 38.6815 36.2613 38.476 36.5468 37.7469H33.2895Z" fill="white"/>
<path d="M35.112 56.7662C33.4607 56.7662 31.8094 56.7604 30.1581 56.772C29.8823 56.7739 29.7859 56.7063 29.7916 56.4106C29.8069 55.6164 29.7929 55.6158 30.563 55.6158C32.2621 55.6158 33.9613 55.6055 35.6605 55.6248C35.9842 55.6287 36.0704 55.4953 36.1687 55.2222C36.3405 54.7456 36.239 54.3462 36.0123 53.9211C35.603 53.152 35.7958 52.084 36.4152 51.456C36.6093 51.2595 36.7945 51.0534 36.9918 50.8601C37.0965 50.7584 37.1859 50.5787 37.3769 50.6914C37.5767 50.8093 37.4305 50.9793 37.4011 51.112C37.306 51.5474 37.2013 51.9822 37.0659 52.4061C36.9708 52.7049 37.0659 52.8286 37.3488 52.8911C37.6987 52.9684 38.0454 53.0624 38.389 53.1649C38.6821 53.2525 38.8334 53.1681 38.8979 52.855C38.9905 52.4067 39.1118 51.9642 39.2344 51.5236C39.2657 51.4109 39.2459 51.2312 39.4362 51.2318C39.599 51.2325 39.6456 51.3626 39.682 51.4972C39.7918 51.9043 39.9017 52.3114 40.0198 52.7159C40.076 52.9078 39.9649 53.0682 39.947 53.2454C39.871 54.0054 39.5217 54.5716 38.8302 54.9195C38.668 55.0013 38.5001 55.1069 38.4279 55.3124C38.3532 55.5262 38.3756 55.6248 38.631 55.6184C39.1214 55.6061 39.6124 55.6235 40.1028 55.6113C40.3212 55.6055 40.3895 55.6828 40.3972 55.9018C40.4266 56.7662 40.4336 56.7656 39.5645 56.7656C38.0805 56.7656 36.5966 56.7656 35.1132 56.7656L35.112 56.7662Z" fill="white"/>
<path d="M34.9638 35.9272C34.6477 35.9549 34.3572 35.884 34.0692 35.8074C33.9089 35.7642 33.7851 35.6592 33.8291 35.466C33.8693 35.2895 34.0079 35.256 34.165 35.2805C34.6873 35.361 35.209 35.3591 35.7313 35.2811C35.8871 35.2579 36.027 35.2914 36.0698 35.4653C36.1183 35.6612 35.9868 35.7649 35.8303 35.8067C35.5436 35.884 35.2531 35.9575 34.9638 35.9272Z" fill="white"/>
<path d="M34.831 24.4906C35.5736 24.4945 36.1873 24.5705 36.7703 24.8178C36.8801 24.8648 36.9944 24.9067 37.0953 24.9692C37.4701 25.2004 37.8379 25.4613 37.8379 25.9573C37.8379 26.4526 37.4918 26.7509 37.094 26.939C35.6579 27.6198 34.211 27.6127 32.771 26.9351C32.6746 26.89 32.5859 26.8243 32.5009 26.7586C31.8892 26.2832 31.8867 25.632 32.499 25.1599C32.999 24.7747 33.5871 24.6194 34.1963 24.5344C34.444 24.5003 34.6969 24.4983 34.8316 24.49L34.831 24.4906Z" fill="white"/>
</svg>
